<?xml version="1.0" standalone="no"?><!DOCTYPE svg PUBLIC "-//W3C//DTD SVG 1.1//EN" "http://www.w3.org/Graphics/SVG/1.1/DTD/svg11.dtd"><svg t="1558592354926" class="icon" style="" viewBox="0 0 1024 1024" version="1.1" xmlns="http://www.w3.org/2000/svg" p-id="1161" xmlns:xlink="http://www.w3.org/1999/xlink" width="200" height="200"><defs><style type="text/css"></style></defs><path d="M993.28 947.2H179.2C81.92 947.2 0 865.28 0 768V204.8c0-15.36 10.24-25.6 25.6-25.6s25.6 10.24 25.6 25.6v563.2c0 71.68 56.32 128 128 128h814.08c15.36 0 25.6 10.24 25.6 25.6s-10.24 25.6-25.6 25.6z" p-id="1162"></path><path d="M204.8 655.36c-5.12 0-10.24 0-15.36-5.12-10.24-10.24-10.24-25.6 0-35.84l199.68-209.92c5.12-5.12 10.24-10.24 20.48-10.24 5.12 0 15.36 0 20.48 5.12l199.68 194.56 230.4-250.88c10.24-10.24 25.6-10.24 35.84 0 10.24 10.24 10.24 25.6 0 35.84l-245.76 271.36c-5.12 5.12-10.24 10.24-20.48 10.24-5.12 0-15.36 0-20.48-5.12l-204.8-204.8-184.32 194.56c0 5.12-10.24 10.24-15.36 10.24z" p-id="1163"></path></svg>